<svg width="115" height="18" viewBox="0 0 115 18" fill="none" xmlns="http://www.w3.org/2000/svg">
<path fill-rule="evenodd" clip-rule="evenodd" d="M9.50882 0L12.1534 6.32773L19.0176 6.87539L13.7878 11.3338L15.3856 18L9.50882 14.4277L3.63205 18L5.22985 11.3338L0 6.87539L6.86427 6.32773L9.50882 0ZM33.5037 0L36.1483 6.32773L43.0125 6.87539L37.7827 11.3338L39.3805 18L33.5037 14.4277L27.6269 18L29.2247 11.3338L23.9949 6.87539L30.8592 6.32773L33.5037 0ZM60.1438 6.32773L57.4993 0L54.8548 6.32773L47.9905 6.87539L53.2203 11.3338L51.6225 18L57.4993 14.4277L63.3761 18L61.7783 11.3338L67.0081 6.87539L60.1438 6.32773ZM81.4949 0L84.1394 6.32773L91.0037 6.87539L85.7739 11.3338L87.3717 18L81.4949 14.4277L75.6181 18L77.2159 11.3338L71.9861 6.87539L78.8503 6.32773L81.4949 0ZM108.135 6.32773L105.49 0L102.846 6.32773L95.9817 6.87539L101.212 11.3338L99.6137 18L105.49 14.4277L111.367 18L109.769 11.3338L114.999 6.87539L108.135 6.32773Z" fill="#F1C88A"/>
</svg>
